<svg width="15" height="16" viewBox="0 0 15 16" fill="none" xmlns="http://www.w3.org/2000/svg">
<path d="M12.8906 3.48242L11.3672 5.00586L12.1582 5.76758C12.4219 6.06055 12.4219 6.5 12.1582 6.76367L11.6309 7.29102C11.9824 8.05273 12.1875 8.90234 12.1875 9.78125C12.1875 13.1504 9.43359 15.875 6.09375 15.875C2.72461 15.875 0 13.1504 0 9.78125C0 6.44141 2.72461 3.6875 6.09375 3.6875C6.97266 3.6875 7.82227 3.89258 8.58398 4.24414L9.11133 3.7168C9.375 3.45312 9.81445 3.45312 10.0781 3.7168L10.8691 4.50781L12.3926 2.98438L12.8906 3.48242ZM14.6484 2.63281C14.8242 2.63281 15 2.80859 15 2.98438C15 3.18945 14.8242 3.33594 14.6484 3.33594H13.9453C13.7402 3.33594 13.5938 3.18945 13.5938 2.98438C13.5938 2.80859 13.7402 2.63281 13.9453 2.63281H14.6484ZM12.8906 0.875C13.0664 0.875 13.2422 1.05078 13.2422 1.22656V1.92969C13.2422 2.13477 13.0664 2.28125 12.8906 2.28125C12.6855 2.28125 12.5391 2.13477 12.5391 1.92969V1.22656C12.5391 1.05078 12.6855 0.875 12.8906 0.875ZM13.8574 2.48633C13.7402 2.63281 13.5059 2.63281 13.3594 2.48633C13.2422 2.36914 13.2422 2.13477 13.3594 1.98828L13.8574 1.49023C14.0039 1.37305 14.2383 1.37305 14.3555 1.49023C14.502 1.63672 14.502 1.87109 14.3555 1.98828L13.8574 2.48633ZM11.8945 2.48633L11.3965 1.98828C11.25 1.87109 11.25 1.63672 11.3965 1.49023C11.5137 1.37305 11.748 1.37305 11.8945 1.49023L12.3926 1.98828C12.5098 2.13477 12.5098 2.36914 12.3926 2.48633C12.2461 2.63281 12.0117 2.63281 11.8945 2.48633ZM13.8574 3.48242L14.3555 3.98047C14.502 4.12695 14.502 4.36133 14.3555 4.47852C14.2383 4.625 14.0039 4.625 13.8574 4.47852L13.3594 3.98047C13.2422 3.86328 13.2422 3.62891 13.3594 3.48242C13.5059 3.36523 13.7402 3.36523 13.8574 3.48242ZM3.28125 8.84375C3.28125 7.81836 4.10156 6.96875 5.15625 6.96875C5.39062 6.96875 5.625 6.76367 5.625 6.5C5.625 6.26562 5.39062 6.03125 5.15625 6.03125C3.60352 6.03125 2.34375 7.32031 2.34375 8.84375C2.34375 9.10742 2.54883 9.3125 2.8125 9.3125C3.04688 9.3125 3.28125 9.10742 3.28125 8.84375Z" fill="black"/>
</svg>
