<svg width="16" height="14" viewBox="0 0 16 14" fill="none" xmlns="http://www.w3.org/2000/svg">
<path d="M8.5 0.8125C4.33984 0.8125 1 3.56641 1 6.90625C1 8.37109 1.61523 9.68945 2.66992 10.7441C2.28906 12.2383 1.05859 13.5273 1.05859 13.5566C1 13.6152 0.970703 13.7324 1 13.8203C1.05859 13.9082 1.11719 13.9375 1.23438 13.9375C3.16797 13.9375 4.63281 13.0293 5.33594 12.4434C6.30273 12.7949 7.35742 13 8.5 13C12.6309 13 16 10.2754 16 6.90625C16 3.56641 12.6309 0.8125 8.5 0.8125ZM4.75 7.84375C4.22266 7.84375 3.8125 7.43359 3.8125 6.90625C3.8125 6.4082 4.22266 5.96875 4.75 5.96875C5.24805 5.96875 5.6875 6.4082 5.6875 6.90625C5.6875 7.43359 5.24805 7.84375 4.75 7.84375ZM8.5 7.84375C7.97266 7.84375 7.5625 7.43359 7.5625 6.90625C7.5625 6.4082 7.97266 5.96875 8.5 5.96875C8.99805 5.96875 9.4375 6.4082 9.4375 6.90625C9.4375 7.43359 8.99805 7.84375 8.5 7.84375ZM12.25 7.84375C11.7227 7.84375 11.3125 7.43359 11.3125 6.90625C11.3125 6.4082 11.7227 5.96875 12.25 5.96875C12.748 5.96875 13.1875 6.4082 13.1875 6.90625C13.1875 7.43359 12.748 7.84375 12.25 7.84375Z" fill="white"/>
</svg>
